<mxfile host="app.diagrams.net" agent="Mozilla/5.0 (Windows NT 10.0; Win64; x64) AppleWebKit/537.36 (KHTML, like Gecko) Chrome/128.0.0.0 Safari/537.36 OPR/114.0.0.0" version="25.0.3">
  <diagram id="C5RBs43oDa-KdzZeNtuy" name="Page-1">
    <mxGraphModel dx="1836" dy="1708" grid="1" gridSize="10" guides="1" tooltips="1" connect="1" arrows="1" fold="1" page="1" pageScale="1" pageWidth="827" pageHeight="1169" math="0" shadow="0">
      <root>
        <mxCell id="WIyWlLk6GJQsqaUBKTNV-0" />
        <mxCell id="WIyWlLk6GJQsqaUBKTNV-1" parent="WIyWlLk6GJQsqaUBKTNV-0" />
        <mxCell id="ymav6V-hcm-zEig4iOVw-0" value="Types" style="shape=module;align=left;spacingLeft=20;align=center;verticalAlign=top;whiteSpace=wrap;html=1;" vertex="1" parent="WIyWlLk6GJQsqaUBKTNV-1">
          <mxGeometry x="-210" y="749" width="560" height="200" as="geometry" />
        </mxCell>
        <mxCell id="ymav6V-hcm-zEig4iOVw-1" value="Point" style="swimlane;fontStyle=1;align=center;verticalAlign=top;childLayout=stackLayout;horizontal=1;startSize=26;horizontalStack=0;resizeParent=1;resizeParentMax=0;resizeLast=0;collapsible=1;marginBottom=0;whiteSpace=wrap;html=1;" vertex="1" parent="WIyWlLk6GJQsqaUBKTNV-1">
          <mxGeometry x="-110" y="805" width="160" height="88" as="geometry" />
        </mxCell>
        <mxCell id="ymav6V-hcm-zEig4iOVw-2" value="&lt;div style=&quot;background-color: rgb(255, 255, 254); font-size: 14px; line-height: 19px; white-space: pre;&quot;&gt;&lt;div style=&quot;&quot;&gt;&lt;font face=&quot;Helvetica&quot;&gt;&lt;span style=&quot;font-weight: bold;&quot;&gt;+&lt;/span&gt; x&lt;span style=&quot;font-weight: bold;&quot;&gt;:&lt;/span&gt; int&lt;/font&gt;&lt;/div&gt;&lt;div style=&quot;&quot;&gt;&lt;font face=&quot;Helvetica&quot;&gt;&lt;span style=&quot;font-weight: bold;&quot;&gt;+&lt;/span&gt; y&lt;span style=&quot;font-weight: bold;&quot;&gt;:&lt;/span&gt; int&lt;/font&gt;&lt;/div&gt;&lt;/div&gt;" style="text;strokeColor=none;fillColor=none;align=left;verticalAlign=top;spacingLeft=4;spacingRight=4;overflow=hidden;rotatable=0;points=[[0,0.5],[1,0.5]];portConstraint=eastwest;whiteSpace=wrap;html=1;" vertex="1" parent="ymav6V-hcm-zEig4iOVw-1">
          <mxGeometry y="26" width="160" height="54" as="geometry" />
        </mxCell>
        <mxCell id="ymav6V-hcm-zEig4iOVw-3" value="" style="line;strokeWidth=1;fillColor=none;align=left;verticalAlign=middle;spacingTop=-1;spacingLeft=3;spacingRight=3;rotatable=0;labelPosition=right;points=[];portConstraint=eastwest;strokeColor=inherit;" vertex="1" parent="ymav6V-hcm-zEig4iOVw-1">
          <mxGeometry y="80" width="160" height="8" as="geometry" />
        </mxCell>
        <mxCell id="ymav6V-hcm-zEig4iOVw-5" value="Rect" style="swimlane;fontStyle=1;align=center;verticalAlign=top;childLayout=stackLayout;horizontal=1;startSize=26;horizontalStack=0;resizeParent=1;resizeParentMax=0;resizeLast=0;collapsible=1;marginBottom=0;whiteSpace=wrap;html=1;" vertex="1" parent="WIyWlLk6GJQsqaUBKTNV-1">
          <mxGeometry x="140" y="790" width="160" height="118" as="geometry" />
        </mxCell>
        <mxCell id="ymav6V-hcm-zEig4iOVw-6" value="&lt;div style=&quot;background-color: rgb(255, 255, 254); font-size: 14px; line-height: 19px; white-space: pre;&quot;&gt;&lt;div style=&quot;line-height: 19px;&quot;&gt;&lt;div style=&quot;&quot;&gt;&lt;font face=&quot;Helvetica&quot;&gt;&lt;span style=&quot;font-weight: bold;&quot;&gt;+&lt;/span&gt; x&lt;span style=&quot;font-weight: bold;&quot;&gt;:&lt;/span&gt; int&lt;/font&gt;&lt;/div&gt;&lt;div style=&quot;&quot;&gt;&lt;font face=&quot;Helvetica&quot;&gt;&lt;span style=&quot;font-weight: bold;&quot;&gt;+&lt;/span&gt; y&lt;span style=&quot;font-weight: bold;&quot;&gt;:&lt;/span&gt; int&lt;/font&gt;&lt;/div&gt;&lt;div style=&quot;&quot;&gt;&lt;font face=&quot;Helvetica&quot;&gt;&lt;span style=&quot;font-weight: bold;&quot;&gt;+&lt;/span&gt; width&lt;span style=&quot;font-weight: bold;&quot;&gt;:&lt;/span&gt; unsigned&lt;/font&gt;&lt;/div&gt;&lt;div style=&quot;&quot;&gt;&lt;font face=&quot;Helvetica&quot;&gt;&lt;span style=&quot;font-weight: bold;&quot;&gt;+&lt;/span&gt; height&lt;span style=&quot;font-weight: bold;&quot;&gt;:&lt;/span&gt; unsigned&lt;/font&gt;&lt;/div&gt;&lt;/div&gt;&lt;/div&gt;" style="text;strokeColor=none;fillColor=none;align=left;verticalAlign=top;spacingLeft=4;spacingRight=4;overflow=hidden;rotatable=0;points=[[0,0.5],[1,0.5]];portConstraint=eastwest;whiteSpace=wrap;html=1;" vertex="1" parent="ymav6V-hcm-zEig4iOVw-5">
          <mxGeometry y="26" width="160" height="84" as="geometry" />
        </mxCell>
        <mxCell id="ymav6V-hcm-zEig4iOVw-7" value="" style="line;strokeWidth=1;fillColor=none;align=left;verticalAlign=middle;spacingTop=-1;spacingLeft=3;spacingRight=3;rotatable=0;labelPosition=right;points=[];portConstraint=eastwest;strokeColor=inherit;" vertex="1" parent="ymav6V-hcm-zEig4iOVw-5">
          <mxGeometry y="110" width="160" height="8" as="geometry" />
        </mxCell>
        <mxCell id="ymav6V-hcm-zEig4iOVw-8" value="Canvas" style="shape=module;align=left;spacingLeft=20;align=center;verticalAlign=top;whiteSpace=wrap;html=1;" vertex="1" parent="WIyWlLk6GJQsqaUBKTNV-1">
          <mxGeometry x="-390" y="490" width="320" height="170" as="geometry" />
        </mxCell>
        <mxCell id="ymav6V-hcm-zEig4iOVw-9" value="&lt;i&gt;&amp;lt;&amp;lt;interface&amp;gt;&amp;gt; ICanvas&lt;/i&gt;" style="swimlane;fontStyle=1;align=center;verticalAlign=top;childLayout=stackLayout;horizontal=1;startSize=26;horizontalStack=0;resizeParent=1;resizeParentMax=0;resizeLast=0;collapsible=1;marginBottom=0;whiteSpace=wrap;html=1;" vertex="1" parent="WIyWlLk6GJQsqaUBKTNV-1">
          <mxGeometry x="-360" y="550" width="250" height="80" as="geometry" />
        </mxCell>
        <mxCell id="ymav6V-hcm-zEig4iOVw-11" value="" style="line;strokeWidth=1;fillColor=none;align=left;verticalAlign=middle;spacingTop=-1;spacingLeft=3;spacingRight=3;rotatable=0;labelPosition=right;points=[];portConstraint=eastwest;strokeColor=inherit;" vertex="1" parent="ymav6V-hcm-zEig4iOVw-9">
          <mxGeometry y="26" width="250" height="8" as="geometry" />
        </mxCell>
        <mxCell id="ymav6V-hcm-zEig4iOVw-12" value="&lt;i&gt;+ DrawEllipse(rect: Rect) : void&lt;/i&gt;&lt;div&gt;&lt;i&gt;+ DrawPolygon(points: vector&amp;lt;Point&amp;gt;) : void&lt;/i&gt;&lt;/div&gt;" style="text;strokeColor=none;fillColor=none;align=left;verticalAlign=top;spacingLeft=4;spacingRight=4;overflow=hidden;rotatable=0;points=[[0,0.5],[1,0.5]];portConstraint=eastwest;whiteSpace=wrap;html=1;" vertex="1" parent="ymav6V-hcm-zEig4iOVw-9">
          <mxGeometry y="34" width="250" height="46" as="geometry" />
        </mxCell>
        <mxCell id="ymav6V-hcm-zEig4iOVw-13" value="Shapes" style="shape=module;align=left;spacingLeft=20;align=center;verticalAlign=top;whiteSpace=wrap;html=1;" vertex="1" parent="WIyWlLk6GJQsqaUBKTNV-1">
          <mxGeometry x="-30" y="420" width="290" height="230" as="geometry" />
        </mxCell>
        <mxCell id="ymav6V-hcm-zEig4iOVw-14" value="Shape" style="swimlane;fontStyle=1;align=center;verticalAlign=top;childLayout=stackLayout;horizontal=1;startSize=26;horizontalStack=0;resizeParent=1;resizeParentMax=0;resizeLast=0;collapsible=1;marginBottom=0;whiteSpace=wrap;html=1;" vertex="1" parent="WIyWlLk6GJQsqaUBKTNV-1">
          <mxGeometry x="10" y="452" width="220" height="150" as="geometry" />
        </mxCell>
        <mxCell id="ymav6V-hcm-zEig4iOVw-15" value="- m_rect: Rect" style="text;strokeColor=none;fillColor=none;align=left;verticalAlign=top;spacingLeft=4;spacingRight=4;overflow=hidden;rotatable=0;points=[[0,0.5],[1,0.5]];portConstraint=eastwest;whiteSpace=wrap;html=1;" vertex="1" parent="ymav6V-hcm-zEig4iOVw-14">
          <mxGeometry y="26" width="220" height="26" as="geometry" />
        </mxCell>
        <mxCell id="ymav6V-hcm-zEig4iOVw-16" value="" style="line;strokeWidth=1;fillColor=none;align=left;verticalAlign=middle;spacingTop=-1;spacingLeft=3;spacingRight=3;rotatable=0;labelPosition=right;points=[];portConstraint=eastwest;strokeColor=inherit;" vertex="1" parent="ymav6V-hcm-zEig4iOVw-14">
          <mxGeometry y="52" width="220" height="8" as="geometry" />
        </mxCell>
        <mxCell id="ymav6V-hcm-zEig4iOVw-17" value="&lt;div&gt;+ SetRect(rect: Rect): void&lt;/div&gt;&lt;div&gt;+ GetRect(): Rect&lt;/div&gt;&lt;div&gt;+ Move(dx: int, dy: int): void&lt;/div&gt;&lt;div&gt;+ Draw(canvas: ICanvas): void&lt;/div&gt;&lt;div&gt;&lt;span style=&quot;background-color: initial;&quot;&gt;&lt;i&gt;# DrawImp(canvas: ICanvas): void&lt;/i&gt;&lt;/span&gt;&lt;/div&gt;" style="text;strokeColor=none;fillColor=none;align=left;verticalAlign=top;spacingLeft=4;spacingRight=4;overflow=hidden;rotatable=0;points=[[0,0.5],[1,0.5]];portConstraint=eastwest;whiteSpace=wrap;html=1;" vertex="1" parent="ymav6V-hcm-zEig4iOVw-14">
          <mxGeometry y="60" width="220" height="90" as="geometry" />
        </mxCell>
        <mxCell id="ymav6V-hcm-zEig4iOVw-18" value="Factory" style="shape=module;align=left;spacingLeft=20;align=center;verticalAlign=top;whiteSpace=wrap;html=1;" vertex="1" parent="WIyWlLk6GJQsqaUBKTNV-1">
          <mxGeometry x="-90" y="190" width="390" height="130" as="geometry" />
        </mxCell>
        <mxCell id="ymav6V-hcm-zEig4iOVw-19" value="Use" style="endArrow=open;endSize=12;dashed=1;html=1;rounded=0;" edge="1" parent="WIyWlLk6GJQsqaUBKTNV-1" source="ymav6V-hcm-zEig4iOVw-14" target="ymav6V-hcm-zEig4iOVw-9">
          <mxGeometry width="160" relative="1" as="geometry">
            <mxPoint x="-40" y="580" as="sourcePoint" />
            <mxPoint x="120" y="580" as="targetPoint" />
          </mxGeometry>
        </mxCell>
        <mxCell id="ymav6V-hcm-zEig4iOVw-20" value="" style="endArrow=diamondThin;endFill=1;endSize=24;html=1;rounded=0;" edge="1" parent="WIyWlLk6GJQsqaUBKTNV-1" source="ymav6V-hcm-zEig4iOVw-5" target="ymav6V-hcm-zEig4iOVw-14">
          <mxGeometry width="160" relative="1" as="geometry">
            <mxPoint x="-50" y="650" as="sourcePoint" />
            <mxPoint x="110" y="650" as="targetPoint" />
          </mxGeometry>
        </mxCell>
        <mxCell id="ymav6V-hcm-zEig4iOVw-21" value="Use" style="endArrow=open;endSize=12;dashed=1;html=1;rounded=0;" edge="1" parent="WIyWlLk6GJQsqaUBKTNV-1" source="ymav6V-hcm-zEig4iOVw-9" target="ymav6V-hcm-zEig4iOVw-1">
          <mxGeometry width="160" relative="1" as="geometry">
            <mxPoint x="-50" y="650" as="sourcePoint" />
            <mxPoint x="110" y="650" as="targetPoint" />
          </mxGeometry>
        </mxCell>
        <mxCell id="ymav6V-hcm-zEig4iOVw-22" value="Use" style="endArrow=open;endSize=12;dashed=1;html=1;rounded=0;" edge="1" parent="WIyWlLk6GJQsqaUBKTNV-1" source="ymav6V-hcm-zEig4iOVw-9" target="ymav6V-hcm-zEig4iOVw-5">
          <mxGeometry width="160" relative="1" as="geometry">
            <mxPoint x="-50" y="650" as="sourcePoint" />
            <mxPoint x="110" y="650" as="targetPoint" />
            <Array as="points">
              <mxPoint x="-40" y="710" />
            </Array>
          </mxGeometry>
        </mxCell>
        <mxCell id="ymav6V-hcm-zEig4iOVw-23" value="&lt;i&gt;&amp;lt;&amp;lt;interface&amp;gt;&amp;gt; IShapeFactory&lt;/i&gt;" style="swimlane;fontStyle=1;align=center;verticalAlign=top;childLayout=stackLayout;horizontal=1;startSize=26;horizontalStack=0;resizeParent=1;resizeParentMax=0;resizeLast=0;collapsible=1;marginBottom=0;whiteSpace=wrap;html=1;" vertex="1" parent="WIyWlLk6GJQsqaUBKTNV-1">
          <mxGeometry x="-30" y="230" width="300" height="60" as="geometry" />
        </mxCell>
        <mxCell id="ymav6V-hcm-zEig4iOVw-25" value="" style="line;strokeWidth=1;fillColor=none;align=left;verticalAlign=middle;spacingTop=-1;spacingLeft=3;spacingRight=3;rotatable=0;labelPosition=right;points=[];portConstraint=eastwest;strokeColor=inherit;" vertex="1" parent="ymav6V-hcm-zEig4iOVw-23">
          <mxGeometry y="26" width="300" height="8" as="geometry" />
        </mxCell>
        <mxCell id="ymav6V-hcm-zEig4iOVw-26" value="&lt;i&gt;+ CreateShape(shape: string): shared_ptr&amp;lt;Shape&amp;gt;&lt;/i&gt;" style="text;strokeColor=none;fillColor=none;align=left;verticalAlign=top;spacingLeft=4;spacingRight=4;overflow=hidden;rotatable=0;points=[[0,0.5],[1,0.5]];portConstraint=eastwest;whiteSpace=wrap;html=1;" vertex="1" parent="ymav6V-hcm-zEig4iOVw-23">
          <mxGeometry y="34" width="300" height="26" as="geometry" />
        </mxCell>
        <mxCell id="ymav6V-hcm-zEig4iOVw-27" value="Use" style="endArrow=open;endSize=12;dashed=1;html=1;rounded=0;" edge="1" parent="WIyWlLk6GJQsqaUBKTNV-1" source="ymav6V-hcm-zEig4iOVw-23" target="ymav6V-hcm-zEig4iOVw-14">
          <mxGeometry width="160" relative="1" as="geometry">
            <mxPoint x="-70" y="290" as="sourcePoint" />
            <mxPoint x="90" y="290" as="targetPoint" />
          </mxGeometry>
        </mxCell>
        <mxCell id="ymav6V-hcm-zEig4iOVw-28" value="SimpleShapeFactory" style="shape=module;align=left;spacingLeft=20;align=center;verticalAlign=top;whiteSpace=wrap;html=1;" vertex="1" parent="WIyWlLk6GJQsqaUBKTNV-1">
          <mxGeometry x="430" y="150" width="800" height="350" as="geometry" />
        </mxCell>
        <mxCell id="ymav6V-hcm-zEig4iOVw-29" value="ShapeFactory" style="swimlane;fontStyle=1;align=center;verticalAlign=top;childLayout=stackLayout;horizontal=1;startSize=26;horizontalStack=0;resizeParent=1;resizeParentMax=0;resizeLast=0;collapsible=1;marginBottom=0;whiteSpace=wrap;html=1;" vertex="1" parent="WIyWlLk6GJQsqaUBKTNV-1">
          <mxGeometry x="500" y="204" width="290" height="60" as="geometry" />
        </mxCell>
        <mxCell id="ymav6V-hcm-zEig4iOVw-31" value="" style="line;strokeWidth=1;fillColor=none;align=left;verticalAlign=middle;spacingTop=-1;spacingLeft=3;spacingRight=3;rotatable=0;labelPosition=right;points=[];portConstraint=eastwest;strokeColor=inherit;" vertex="1" parent="ymav6V-hcm-zEig4iOVw-29">
          <mxGeometry y="26" width="290" height="8" as="geometry" />
        </mxCell>
        <mxCell id="ymav6V-hcm-zEig4iOVw-32" value="+ CreateShape(shape: string): shared_ptr&amp;lt;Shape&amp;gt;" style="text;strokeColor=none;fillColor=none;align=left;verticalAlign=top;spacingLeft=4;spacingRight=4;overflow=hidden;rotatable=0;points=[[0,0.5],[1,0.5]];portConstraint=eastwest;whiteSpace=wrap;html=1;" vertex="1" parent="ymav6V-hcm-zEig4iOVw-29">
          <mxGeometry y="34" width="290" height="26" as="geometry" />
        </mxCell>
        <mxCell id="ymav6V-hcm-zEig4iOVw-33" value="Rectangle" style="swimlane;fontStyle=1;align=center;verticalAlign=top;childLayout=stackLayout;horizontal=1;startSize=26;horizontalStack=0;resizeParent=1;resizeParentMax=0;resizeLast=0;collapsible=1;marginBottom=0;whiteSpace=wrap;html=1;" vertex="1" parent="WIyWlLk6GJQsqaUBKTNV-1">
          <mxGeometry x="480" y="310" width="220" height="150" as="geometry" />
        </mxCell>
        <mxCell id="ymav6V-hcm-zEig4iOVw-34" value="- m_rect: Rect" style="text;strokeColor=none;fillColor=none;align=left;verticalAlign=top;spacingLeft=4;spacingRight=4;overflow=hidden;rotatable=0;points=[[0,0.5],[1,0.5]];portConstraint=eastwest;whiteSpace=wrap;html=1;" vertex="1" parent="ymav6V-hcm-zEig4iOVw-33">
          <mxGeometry y="26" width="220" height="26" as="geometry" />
        </mxCell>
        <mxCell id="ymav6V-hcm-zEig4iOVw-35" value="" style="line;strokeWidth=1;fillColor=none;align=left;verticalAlign=middle;spacingTop=-1;spacingLeft=3;spacingRight=3;rotatable=0;labelPosition=right;points=[];portConstraint=eastwest;strokeColor=inherit;" vertex="1" parent="ymav6V-hcm-zEig4iOVw-33">
          <mxGeometry y="52" width="220" height="8" as="geometry" />
        </mxCell>
        <mxCell id="ymav6V-hcm-zEig4iOVw-36" value="&lt;div&gt;+ SetRect(rect: Rect): void&lt;/div&gt;&lt;div&gt;+ GetRect(): Rect&lt;/div&gt;&lt;div&gt;+ Move(dx: int, dy: int): void&lt;/div&gt;&lt;div&gt;+ Draw(canvas: ICanvas): void&lt;/div&gt;&lt;div&gt;&lt;span style=&quot;background-color: initial;&quot;&gt;# DrawImp(canvas: ICanvas): void&lt;/span&gt;&lt;/div&gt;" style="text;strokeColor=none;fillColor=none;align=left;verticalAlign=top;spacingLeft=4;spacingRight=4;overflow=hidden;rotatable=0;points=[[0,0.5],[1,0.5]];portConstraint=eastwest;whiteSpace=wrap;html=1;" vertex="1" parent="ymav6V-hcm-zEig4iOVw-33">
          <mxGeometry y="60" width="220" height="90" as="geometry" />
        </mxCell>
        <mxCell id="ymav6V-hcm-zEig4iOVw-37" value="Ellipse" style="swimlane;fontStyle=1;align=center;verticalAlign=top;childLayout=stackLayout;horizontal=1;startSize=26;horizontalStack=0;resizeParent=1;resizeParentMax=0;resizeLast=0;collapsible=1;marginBottom=0;whiteSpace=wrap;html=1;" vertex="1" parent="WIyWlLk6GJQsqaUBKTNV-1">
          <mxGeometry x="730" y="310" width="220" height="150" as="geometry" />
        </mxCell>
        <mxCell id="ymav6V-hcm-zEig4iOVw-38" value="- m_rect: Rect" style="text;strokeColor=none;fillColor=none;align=left;verticalAlign=top;spacingLeft=4;spacingRight=4;overflow=hidden;rotatable=0;points=[[0,0.5],[1,0.5]];portConstraint=eastwest;whiteSpace=wrap;html=1;" vertex="1" parent="ymav6V-hcm-zEig4iOVw-37">
          <mxGeometry y="26" width="220" height="26" as="geometry" />
        </mxCell>
        <mxCell id="ymav6V-hcm-zEig4iOVw-39" value="" style="line;strokeWidth=1;fillColor=none;align=left;verticalAlign=middle;spacingTop=-1;spacingLeft=3;spacingRight=3;rotatable=0;labelPosition=right;points=[];portConstraint=eastwest;strokeColor=inherit;" vertex="1" parent="ymav6V-hcm-zEig4iOVw-37">
          <mxGeometry y="52" width="220" height="8" as="geometry" />
        </mxCell>
        <mxCell id="ymav6V-hcm-zEig4iOVw-40" value="&lt;div&gt;+ SetRect(rect: Rect): void&lt;/div&gt;&lt;div&gt;+ GetRect(): Rect&lt;/div&gt;&lt;div&gt;+ Move(dx: int, dy: int): void&lt;/div&gt;&lt;div&gt;+ Draw(canvas: ICanvas): void&lt;/div&gt;&lt;div&gt;&lt;span style=&quot;background-color: initial;&quot;&gt;# DrawImp(canvas: ICanvas): void&lt;/span&gt;&lt;/div&gt;" style="text;strokeColor=none;fillColor=none;align=left;verticalAlign=top;spacingLeft=4;spacingRight=4;overflow=hidden;rotatable=0;points=[[0,0.5],[1,0.5]];portConstraint=eastwest;whiteSpace=wrap;html=1;" vertex="1" parent="ymav6V-hcm-zEig4iOVw-37">
          <mxGeometry y="60" width="220" height="90" as="geometry" />
        </mxCell>
        <mxCell id="ymav6V-hcm-zEig4iOVw-41" value="Triangle" style="swimlane;fontStyle=1;align=center;verticalAlign=top;childLayout=stackLayout;horizontal=1;startSize=26;horizontalStack=0;resizeParent=1;resizeParentMax=0;resizeLast=0;collapsible=1;marginBottom=0;whiteSpace=wrap;html=1;" vertex="1" parent="WIyWlLk6GJQsqaUBKTNV-1">
          <mxGeometry x="980" y="310" width="220" height="150" as="geometry" />
        </mxCell>
        <mxCell id="ymav6V-hcm-zEig4iOVw-42" value="- m_rect: Rect" style="text;strokeColor=none;fillColor=none;align=left;verticalAlign=top;spacingLeft=4;spacingRight=4;overflow=hidden;rotatable=0;points=[[0,0.5],[1,0.5]];portConstraint=eastwest;whiteSpace=wrap;html=1;" vertex="1" parent="ymav6V-hcm-zEig4iOVw-41">
          <mxGeometry y="26" width="220" height="26" as="geometry" />
        </mxCell>
        <mxCell id="ymav6V-hcm-zEig4iOVw-43" value="" style="line;strokeWidth=1;fillColor=none;align=left;verticalAlign=middle;spacingTop=-1;spacingLeft=3;spacingRight=3;rotatable=0;labelPosition=right;points=[];portConstraint=eastwest;strokeColor=inherit;" vertex="1" parent="ymav6V-hcm-zEig4iOVw-41">
          <mxGeometry y="52" width="220" height="8" as="geometry" />
        </mxCell>
        <mxCell id="ymav6V-hcm-zEig4iOVw-44" value="&lt;div&gt;+ SetRect(rect: Rect): void&lt;/div&gt;&lt;div&gt;+ GetRect(): Rect&lt;/div&gt;&lt;div&gt;+ Move(dx: int, dy: int): void&lt;/div&gt;&lt;div&gt;+ Draw(canvas: ICanvas): void&lt;/div&gt;&lt;div&gt;&lt;span style=&quot;background-color: initial;&quot;&gt;# DrawImp(canvas: ICanvas): void&lt;/span&gt;&lt;/div&gt;" style="text;strokeColor=none;fillColor=none;align=left;verticalAlign=top;spacingLeft=4;spacingRight=4;overflow=hidden;rotatable=0;points=[[0,0.5],[1,0.5]];portConstraint=eastwest;whiteSpace=wrap;html=1;" vertex="1" parent="ymav6V-hcm-zEig4iOVw-41">
          <mxGeometry y="60" width="220" height="90" as="geometry" />
        </mxCell>
        <mxCell id="ymav6V-hcm-zEig4iOVw-45" value="" style="endArrow=diamondThin;endFill=1;endSize=24;html=1;rounded=0;" edge="1" parent="WIyWlLk6GJQsqaUBKTNV-1" source="ymav6V-hcm-zEig4iOVw-5" target="ymav6V-hcm-zEig4iOVw-33">
          <mxGeometry width="160" relative="1" as="geometry">
            <mxPoint x="212" y="800" as="sourcePoint" />
            <mxPoint x="153" y="612" as="targetPoint" />
          </mxGeometry>
        </mxCell>
        <mxCell id="ymav6V-hcm-zEig4iOVw-46" value="" style="endArrow=diamondThin;endFill=1;endSize=24;html=1;rounded=0;" edge="1" parent="WIyWlLk6GJQsqaUBKTNV-1" source="ymav6V-hcm-zEig4iOVw-5" target="ymav6V-hcm-zEig4iOVw-37">
          <mxGeometry width="160" relative="1" as="geometry">
            <mxPoint x="290" y="810" as="sourcePoint" />
            <mxPoint x="540" y="470" as="targetPoint" />
          </mxGeometry>
        </mxCell>
        <mxCell id="ymav6V-hcm-zEig4iOVw-47" value="" style="endArrow=diamondThin;endFill=1;endSize=24;html=1;rounded=0;" edge="1" parent="WIyWlLk6GJQsqaUBKTNV-1" source="ymav6V-hcm-zEig4iOVw-5" target="ymav6V-hcm-zEig4iOVw-41">
          <mxGeometry width="160" relative="1" as="geometry">
            <mxPoint x="287" y="810" as="sourcePoint" />
            <mxPoint x="550" y="480" as="targetPoint" />
          </mxGeometry>
        </mxCell>
        <mxCell id="ymav6V-hcm-zEig4iOVw-48" value="Use" style="endArrow=open;endSize=12;dashed=1;html=1;rounded=0;" edge="1" parent="WIyWlLk6GJQsqaUBKTNV-1" source="ymav6V-hcm-zEig4iOVw-33" target="ymav6V-hcm-zEig4iOVw-9">
          <mxGeometry width="160" relative="1" as="geometry">
            <mxPoint x="20" y="557" as="sourcePoint" />
            <mxPoint x="-100" y="578" as="targetPoint" />
            <Array as="points">
              <mxPoint x="440" y="560" />
              <mxPoint x="280" y="680" />
              <mxPoint x="-40" y="680" />
            </Array>
          </mxGeometry>
        </mxCell>
        <mxCell id="ymav6V-hcm-zEig4iOVw-49" value="Use" style="endArrow=open;endSize=12;dashed=1;html=1;rounded=0;" edge="1" parent="WIyWlLk6GJQsqaUBKTNV-1" source="ymav6V-hcm-zEig4iOVw-37" target="ymav6V-hcm-zEig4iOVw-9">
          <mxGeometry width="160" relative="1" as="geometry">
            <mxPoint x="536" y="470" as="sourcePoint" />
            <mxPoint x="-138" y="640" as="targetPoint" />
            <Array as="points">
              <mxPoint x="680" y="560" />
              <mxPoint x="280" y="690" />
              <mxPoint x="-40" y="690" />
            </Array>
          </mxGeometry>
        </mxCell>
        <mxCell id="ymav6V-hcm-zEig4iOVw-50" value="Use" style="endArrow=open;endSize=12;dashed=1;html=1;rounded=0;" edge="1" parent="WIyWlLk6GJQsqaUBKTNV-1" source="ymav6V-hcm-zEig4iOVw-41" target="ymav6V-hcm-zEig4iOVw-9">
          <mxGeometry width="160" relative="1" as="geometry">
            <mxPoint x="781" y="470" as="sourcePoint" />
            <mxPoint x="-147" y="640" as="targetPoint" />
            <Array as="points">
              <mxPoint x="960" y="560" />
              <mxPoint x="280" y="700" />
              <mxPoint x="-40" y="700" />
            </Array>
          </mxGeometry>
        </mxCell>
        <mxCell id="ymav6V-hcm-zEig4iOVw-51" value="Use" style="endArrow=open;endSize=12;dashed=1;html=1;rounded=0;" edge="1" parent="WIyWlLk6GJQsqaUBKTNV-1" source="ymav6V-hcm-zEig4iOVw-29" target="ymav6V-hcm-zEig4iOVw-33">
          <mxGeometry width="160" relative="1" as="geometry">
            <mxPoint x="650" y="350" as="sourcePoint" />
            <mxPoint x="810" y="350" as="targetPoint" />
          </mxGeometry>
        </mxCell>
        <mxCell id="ymav6V-hcm-zEig4iOVw-52" value="Use" style="endArrow=open;endSize=12;dashed=1;html=1;rounded=0;" edge="1" parent="WIyWlLk6GJQsqaUBKTNV-1" source="ymav6V-hcm-zEig4iOVw-29" target="ymav6V-hcm-zEig4iOVw-37">
          <mxGeometry width="160" relative="1" as="geometry">
            <mxPoint x="644" y="274" as="sourcePoint" />
            <mxPoint x="627" y="320" as="targetPoint" />
          </mxGeometry>
        </mxCell>
        <mxCell id="ymav6V-hcm-zEig4iOVw-53" value="Use" style="endArrow=open;endSize=12;dashed=1;html=1;rounded=0;" edge="1" parent="WIyWlLk6GJQsqaUBKTNV-1" source="ymav6V-hcm-zEig4iOVw-29" target="ymav6V-hcm-zEig4iOVw-41">
          <mxGeometry width="160" relative="1" as="geometry">
            <mxPoint x="694" y="274" as="sourcePoint" />
            <mxPoint x="753" y="320" as="targetPoint" />
          </mxGeometry>
        </mxCell>
        <mxCell id="ymav6V-hcm-zEig4iOVw-54" value="Use" style="endArrow=open;endSize=12;dashed=1;html=1;rounded=0;" edge="1" parent="WIyWlLk6GJQsqaUBKTNV-1" source="ymav6V-hcm-zEig4iOVw-29" target="ymav6V-hcm-zEig4iOVw-14">
          <mxGeometry width="160" relative="1" as="geometry">
            <mxPoint x="704" y="284" as="sourcePoint" />
            <mxPoint x="763" y="330" as="targetPoint" />
          </mxGeometry>
        </mxCell>
        <mxCell id="ymav6V-hcm-zEig4iOVw-56" value="" style="endArrow=block;dashed=1;endFill=0;endSize=12;html=1;rounded=0;" edge="1" parent="WIyWlLk6GJQsqaUBKTNV-1" source="ymav6V-hcm-zEig4iOVw-29" target="ymav6V-hcm-zEig4iOVw-23">
          <mxGeometry width="160" relative="1" as="geometry">
            <mxPoint x="320" y="330" as="sourcePoint" />
            <mxPoint x="480" y="330" as="targetPoint" />
          </mxGeometry>
        </mxCell>
        <mxCell id="ymav6V-hcm-zEig4iOVw-57" value="Extends" style="endArrow=block;endSize=16;endFill=0;html=1;rounded=0;" edge="1" parent="WIyWlLk6GJQsqaUBKTNV-1" source="ymav6V-hcm-zEig4iOVw-33" target="ymav6V-hcm-zEig4iOVw-14">
          <mxGeometry width="160" relative="1" as="geometry">
            <mxPoint x="450" y="470" as="sourcePoint" />
            <mxPoint x="610" y="470" as="targetPoint" />
          </mxGeometry>
        </mxCell>
        <mxCell id="ymav6V-hcm-zEig4iOVw-58" value="Extends" style="endArrow=block;endSize=16;endFill=0;html=1;rounded=0;" edge="1" parent="WIyWlLk6GJQsqaUBKTNV-1" source="ymav6V-hcm-zEig4iOVw-37" target="ymav6V-hcm-zEig4iOVw-14">
          <mxGeometry width="160" relative="1" as="geometry">
            <mxPoint x="490" y="428" as="sourcePoint" />
            <mxPoint x="240" y="504" as="targetPoint" />
            <Array as="points">
              <mxPoint x="800" y="520" />
            </Array>
          </mxGeometry>
        </mxCell>
        <mxCell id="ymav6V-hcm-zEig4iOVw-59" value="Extends" style="endArrow=block;endSize=16;endFill=0;html=1;rounded=0;" edge="1" parent="WIyWlLk6GJQsqaUBKTNV-1" source="ymav6V-hcm-zEig4iOVw-41" target="ymav6V-hcm-zEig4iOVw-14">
          <mxGeometry width="160" relative="1" as="geometry">
            <mxPoint x="828" y="470" as="sourcePoint" />
            <mxPoint x="240" y="536" as="targetPoint" />
            <Array as="points">
              <mxPoint x="1040" y="560" />
              <mxPoint x="400" y="560" />
            </Array>
          </mxGeometry>
        </mxCell>
        <mxCell id="ymav6V-hcm-zEig4iOVw-60" value="Model" style="shape=module;align=left;spacingLeft=20;align=center;verticalAlign=top;whiteSpace=wrap;html=1;" vertex="1" parent="WIyWlLk6GJQsqaUBKTNV-1">
          <mxGeometry x="80" y="-110" width="360" height="230" as="geometry" />
        </mxCell>
        <mxCell id="ymav6V-hcm-zEig4iOVw-61" value="ShapeStore" style="swimlane;fontStyle=1;align=center;verticalAlign=top;childLayout=stackLayout;horizontal=1;startSize=26;horizontalStack=0;resizeParent=1;resizeParentMax=0;resizeLast=0;collapsible=1;marginBottom=0;whiteSpace=wrap;html=1;" vertex="1" parent="WIyWlLk6GJQsqaUBKTNV-1">
          <mxGeometry x="125" y="-65" width="270" height="140" as="geometry" />
        </mxCell>
        <mxCell id="ymav6V-hcm-zEig4iOVw-62" value="- m_factory: IShapeFactory&lt;div&gt;- m_shapes: vector&amp;lt;shared_ptr&amp;lt;Shape&amp;gt;&amp;gt;&lt;/div&gt;" style="text;strokeColor=none;fillColor=none;align=left;verticalAlign=top;spacingLeft=4;spacingRight=4;overflow=hidden;rotatable=0;points=[[0,0.5],[1,0.5]];portConstraint=eastwest;whiteSpace=wrap;html=1;" vertex="1" parent="ymav6V-hcm-zEig4iOVw-61">
          <mxGeometry y="26" width="270" height="34" as="geometry" />
        </mxCell>
        <mxCell id="ymav6V-hcm-zEig4iOVw-63" value="" style="line;strokeWidth=1;fillColor=none;align=left;verticalAlign=middle;spacingTop=-1;spacingLeft=3;spacingRight=3;rotatable=0;labelPosition=right;points=[];portConstraint=eastwest;strokeColor=inherit;" vertex="1" parent="ymav6V-hcm-zEig4iOVw-61">
          <mxGeometry y="60" width="270" height="8" as="geometry" />
        </mxCell>
        <mxCell id="ymav6V-hcm-zEig4iOVw-64" value="+ AddShape(shape: string): void&lt;div&gt;+ DeleteAtIndex(index: size_t): void&lt;/div&gt;&lt;div&gt;+ GetShapeCount(): size_t&lt;/div&gt;&lt;div&gt;+ GetAt(index: size_t): shared_ptr&amp;lt;Shape&amp;gt;;&lt;/div&gt;" style="text;strokeColor=none;fillColor=none;align=left;verticalAlign=top;spacingLeft=4;spacingRight=4;overflow=hidden;rotatable=0;points=[[0,0.5],[1,0.5]];portConstraint=eastwest;whiteSpace=wrap;html=1;" vertex="1" parent="ymav6V-hcm-zEig4iOVw-61">
          <mxGeometry y="68" width="270" height="72" as="geometry" />
        </mxCell>
        <mxCell id="ymav6V-hcm-zEig4iOVw-65" value="" style="endArrow=diamondThin;endFill=0;endSize=24;html=1;rounded=0;" edge="1" parent="WIyWlLk6GJQsqaUBKTNV-1" source="ymav6V-hcm-zEig4iOVw-14" target="ymav6V-hcm-zEig4iOVw-61">
          <mxGeometry width="160" relative="1" as="geometry">
            <mxPoint x="140" y="10" as="sourcePoint" />
            <mxPoint x="300" y="10" as="targetPoint" />
            <Array as="points">
              <mxPoint x="320" y="320" />
              <mxPoint x="320" y="120" />
            </Array>
          </mxGeometry>
        </mxCell>
        <mxCell id="ymav6V-hcm-zEig4iOVw-66" value="" style="endArrow=diamondThin;endFill=0;endSize=24;html=1;rounded=0;" edge="1" parent="WIyWlLk6GJQsqaUBKTNV-1" source="ymav6V-hcm-zEig4iOVw-23" target="ymav6V-hcm-zEig4iOVw-61">
          <mxGeometry width="160" relative="1" as="geometry">
            <mxPoint x="180" y="260" as="sourcePoint" />
            <mxPoint x="330" y="140" as="targetPoint" />
          </mxGeometry>
        </mxCell>
        <mxCell id="ymav6V-hcm-zEig4iOVw-67" value="Controller" style="shape=module;align=left;spacingLeft=20;align=center;verticalAlign=top;whiteSpace=wrap;html=1;" vertex="1" parent="WIyWlLk6GJQsqaUBKTNV-1">
          <mxGeometry x="-670" y="-460" width="720" height="330" as="geometry" />
        </mxCell>
        <mxCell id="ymav6V-hcm-zEig4iOVw-68" value="Controller" style="swimlane;fontStyle=1;align=center;verticalAlign=top;childLayout=stackLayout;horizontal=1;startSize=26;horizontalStack=0;resizeParent=1;resizeParentMax=0;resizeLast=0;collapsible=1;marginBottom=0;whiteSpace=wrap;html=1;" vertex="1" parent="WIyWlLk6GJQsqaUBKTNV-1">
          <mxGeometry x="-340" y="-410" width="270" height="250" as="geometry" />
        </mxCell>
        <mxCell id="ymav6V-hcm-zEig4iOVw-69" value="- m_store: ShapeStore&lt;div&gt;- m_selected: int&lt;/div&gt;&lt;div&gt;- m_oldMousePos: Point&lt;/div&gt;&lt;div&gt;- m_resizeVert: Vertices&lt;/div&gt;" style="text;strokeColor=none;fillColor=none;align=left;verticalAlign=top;spacingLeft=4;spacingRight=4;overflow=hidden;rotatable=0;points=[[0,0.5],[1,0.5]];portConstraint=eastwest;whiteSpace=wrap;html=1;" vertex="1" parent="ymav6V-hcm-zEig4iOVw-68">
          <mxGeometry y="26" width="270" height="64" as="geometry" />
        </mxCell>
        <mxCell id="ymav6V-hcm-zEig4iOVw-70" value="" style="line;strokeWidth=1;fillColor=none;align=left;verticalAlign=middle;spacingTop=-1;spacingLeft=3;spacingRight=3;rotatable=0;labelPosition=right;points=[];portConstraint=eastwest;strokeColor=inherit;" vertex="1" parent="ymav6V-hcm-zEig4iOVw-68">
          <mxGeometry y="90" width="270" height="8" as="geometry" />
        </mxCell>
        <mxCell id="ymav6V-hcm-zEig4iOVw-71" value="+ CreateRectangle(): void&lt;div&gt;+ CreateTriangle(): void&lt;/div&gt;&lt;div&gt;+ CreateEllipse(): void&lt;/div&gt;&lt;div&gt;+ DragShapeTo(point: Point): void&lt;/div&gt;&lt;div&gt;+ DeleteShape(): void&lt;/div&gt;&lt;div&gt;+ Select(point: Point): void&lt;/div&gt;&lt;div&gt;+ GetIndexOfSelected(): int&lt;/div&gt;&lt;div&gt;+ StartResize(vert: Vertices, mousePos: Point)&lt;/div&gt;&lt;div&gt;+ Resize(point: Point): void&lt;/div&gt;&lt;div&gt;+ EndResize(): void&lt;/div&gt;" style="text;strokeColor=none;fillColor=none;align=left;verticalAlign=top;spacingLeft=4;spacingRight=4;overflow=hidden;rotatable=0;points=[[0,0.5],[1,0.5]];portConstraint=eastwest;whiteSpace=wrap;html=1;" vertex="1" parent="ymav6V-hcm-zEig4iOVw-68">
          <mxGeometry y="98" width="270" height="152" as="geometry" />
        </mxCell>
        <mxCell id="ymav6V-hcm-zEig4iOVw-72" value="&amp;lt;&amp;lt;enumeration&amp;gt;&amp;gt; Vertices" style="swimlane;fontStyle=1;align=center;verticalAlign=top;childLayout=stackLayout;horizontal=1;startSize=26;horizontalStack=0;resizeParent=1;resizeParentMax=0;resizeLast=0;collapsible=1;marginBottom=0;whiteSpace=wrap;html=1;" vertex="1" parent="WIyWlLk6GJQsqaUBKTNV-1">
          <mxGeometry x="-570" y="-320" width="160" height="98" as="geometry" />
        </mxCell>
        <mxCell id="ymav6V-hcm-zEig4iOVw-73" value="+ UL&lt;div&gt;+ UR&lt;/div&gt;&lt;div&gt;+ DL&lt;/div&gt;&lt;div&gt;+ DR&lt;/div&gt;" style="text;strokeColor=none;fillColor=none;align=left;verticalAlign=top;spacingLeft=4;spacingRight=4;overflow=hidden;rotatable=0;points=[[0,0.5],[1,0.5]];portConstraint=eastwest;whiteSpace=wrap;html=1;" vertex="1" parent="ymav6V-hcm-zEig4iOVw-72">
          <mxGeometry y="26" width="160" height="64" as="geometry" />
        </mxCell>
        <mxCell id="ymav6V-hcm-zEig4iOVw-74" value="" style="line;strokeWidth=1;fillColor=none;align=left;verticalAlign=middle;spacingTop=-1;spacingLeft=3;spacingRight=3;rotatable=0;labelPosition=right;points=[];portConstraint=eastwest;strokeColor=inherit;" vertex="1" parent="ymav6V-hcm-zEig4iOVw-72">
          <mxGeometry y="90" width="160" height="8" as="geometry" />
        </mxCell>
        <mxCell id="ymav6V-hcm-zEig4iOVw-76" value="" style="endArrow=diamondThin;endFill=1;endSize=24;html=1;rounded=0;" edge="1" parent="WIyWlLk6GJQsqaUBKTNV-1" source="ymav6V-hcm-zEig4iOVw-72" target="ymav6V-hcm-zEig4iOVw-68">
          <mxGeometry width="160" relative="1" as="geometry">
            <mxPoint x="-440" y="-280" as="sourcePoint" />
            <mxPoint x="-280" y="-280" as="targetPoint" />
          </mxGeometry>
        </mxCell>
        <mxCell id="ymav6V-hcm-zEig4iOVw-77" value="" style="endArrow=diamondThin;endFill=0;endSize=24;html=1;rounded=0;" edge="1" parent="WIyWlLk6GJQsqaUBKTNV-1" source="ymav6V-hcm-zEig4iOVw-61" target="ymav6V-hcm-zEig4iOVw-68">
          <mxGeometry width="160" relative="1" as="geometry">
            <mxPoint x="-180" y="-140" as="sourcePoint" />
            <mxPoint x="-20" y="-140" as="targetPoint" />
            <Array as="points">
              <mxPoint x="-110" />
            </Array>
          </mxGeometry>
        </mxCell>
        <mxCell id="ymav6V-hcm-zEig4iOVw-78" value="" style="endArrow=diamondThin;endFill=1;endSize=24;html=1;rounded=0;" edge="1" parent="WIyWlLk6GJQsqaUBKTNV-1" source="ymav6V-hcm-zEig4iOVw-5" target="ymav6V-hcm-zEig4iOVw-68">
          <mxGeometry width="160" relative="1" as="geometry">
            <mxPoint x="-340" y="-110" as="sourcePoint" />
            <mxPoint x="-180" y="-110" as="targetPoint" />
            <Array as="points">
              <mxPoint x="200" y="1040" />
              <mxPoint x="-520" y="1040" />
              <mxPoint x="-520" y="-40" />
            </Array>
          </mxGeometry>
        </mxCell>
        <mxCell id="ymav6V-hcm-zEig4iOVw-79" value="Use" style="endArrow=open;endSize=12;dashed=1;html=1;rounded=0;" edge="1" parent="WIyWlLk6GJQsqaUBKTNV-1" source="ymav6V-hcm-zEig4iOVw-68" target="ymav6V-hcm-zEig4iOVw-1">
          <mxGeometry width="160" relative="1" as="geometry">
            <mxPoint x="-250" y="90" as="sourcePoint" />
            <mxPoint x="-90" y="90" as="targetPoint" />
            <Array as="points">
              <mxPoint x="-480" y="-40" />
              <mxPoint x="-480" y="880" />
            </Array>
          </mxGeometry>
        </mxCell>
        <mxCell id="ymav6V-hcm-zEig4iOVw-80" value="View" style="shape=module;align=left;spacingLeft=20;align=center;verticalAlign=top;whiteSpace=wrap;html=1;" vertex="1" parent="WIyWlLk6GJQsqaUBKTNV-1">
          <mxGeometry x="110" y="-830" width="1090" height="420" as="geometry" />
        </mxCell>
        <mxCell id="ymav6V-hcm-zEig4iOVw-81" value="ClassicCanvas" style="swimlane;fontStyle=1;align=center;verticalAlign=top;childLayout=stackLayout;horizontal=1;startSize=26;horizontalStack=0;resizeParent=1;resizeParentMax=0;resizeLast=0;collapsible=1;marginBottom=0;whiteSpace=wrap;html=1;" vertex="1" parent="WIyWlLk6GJQsqaUBKTNV-1">
          <mxGeometry x="850" y="-639" width="280" height="110" as="geometry" />
        </mxCell>
        <mxCell id="ymav6V-hcm-zEig4iOVw-82" value="- m_hdc: HDC&lt;div&gt;- m_hOffset: int&lt;/div&gt;" style="text;strokeColor=none;fillColor=none;align=left;verticalAlign=top;spacingLeft=4;spacingRight=4;overflow=hidden;rotatable=0;points=[[0,0.5],[1,0.5]];portConstraint=eastwest;whiteSpace=wrap;html=1;" vertex="1" parent="ymav6V-hcm-zEig4iOVw-81">
          <mxGeometry y="26" width="280" height="34" as="geometry" />
        </mxCell>
        <mxCell id="ymav6V-hcm-zEig4iOVw-83" value="" style="line;strokeWidth=1;fillColor=none;align=left;verticalAlign=middle;spacingTop=-1;spacingLeft=3;spacingRight=3;rotatable=0;labelPosition=right;points=[];portConstraint=eastwest;strokeColor=inherit;" vertex="1" parent="ymav6V-hcm-zEig4iOVw-81">
          <mxGeometry y="60" width="280" height="8" as="geometry" />
        </mxCell>
        <mxCell id="ymav6V-hcm-zEig4iOVw-84" value="+ DrawEllipse(rect: Rect) : void&lt;div&gt;+ DrawPolygon(points: vector&amp;lt;Point&amp;gt;) : void&lt;/div&gt;" style="text;strokeColor=none;fillColor=none;align=left;verticalAlign=top;spacingLeft=4;spacingRight=4;overflow=hidden;rotatable=0;points=[[0,0.5],[1,0.5]];portConstraint=eastwest;whiteSpace=wrap;html=1;" vertex="1" parent="ymav6V-hcm-zEig4iOVw-81">
          <mxGeometry y="68" width="280" height="42" as="geometry" />
        </mxCell>
        <mxCell id="ymav6V-hcm-zEig4iOVw-85" value="View" style="swimlane;fontStyle=1;align=center;verticalAlign=top;childLayout=stackLayout;horizontal=1;startSize=26;horizontalStack=0;resizeParent=1;resizeParentMax=0;resizeLast=0;collapsible=1;marginBottom=0;whiteSpace=wrap;html=1;" vertex="1" parent="WIyWlLk6GJQsqaUBKTNV-1">
          <mxGeometry x="150" y="-760" width="610" height="310" as="geometry" />
        </mxCell>
        <mxCell id="ymav6V-hcm-zEig4iOVw-86" value="- m_menuRect: Rect&lt;div&gt;- m_canvasRect: Rect&lt;/div&gt;&lt;div&gt;- m_hInstance: HINSTANCE&lt;/div&gt;&lt;div&gt;- m_store: ShapeStore&lt;/div&gt;&lt;div&gt;- m_controller: CController&lt;/div&gt;&lt;div&gt;- m_isDragging: bool&lt;/div&gt;&lt;div&gt;- m_isResizing: bool&lt;/div&gt;" style="text;strokeColor=none;fillColor=none;align=left;verticalAlign=top;spacingLeft=4;spacingRight=4;overflow=hidden;rotatable=0;points=[[0,0.5],[1,0.5]];portConstraint=eastwest;whiteSpace=wrap;html=1;" vertex="1" parent="ymav6V-hcm-zEig4iOVw-85">
          <mxGeometry y="26" width="610" height="114" as="geometry" />
        </mxCell>
        <mxCell id="ymav6V-hcm-zEig4iOVw-87" value="" style="line;strokeWidth=1;fillColor=none;align=left;verticalAlign=middle;spacingTop=-1;spacingLeft=3;spacingRight=3;rotatable=0;labelPosition=right;points=[];portConstraint=eastwest;strokeColor=inherit;" vertex="1" parent="ymav6V-hcm-zEig4iOVw-85">
          <mxGeometry y="140" width="610" height="8" as="geometry" />
        </mxCell>
        <mxCell id="ymav6V-hcm-zEig4iOVw-88" value="+ Run(): void&lt;div&gt;- RegistWindow(): void&lt;/div&gt;&lt;div&gt;- InitInstance(nCmdShow: int): void&lt;/div&gt;&lt;div&gt;- static WndProc(hWnd: HWND, message: UINT, wParam: WPARAM, lParam: LPARAM): LRESULT CALLBACK&lt;/div&gt;&lt;div&gt;- ViewMenu(hdc: HDC): void&lt;/div&gt;&lt;div&gt;- ViewCanvas(hdc: HDC): void&lt;/div&gt;&lt;div&gt;- ClickToMenu(x: int, y: int): void&lt;/div&gt;&lt;div&gt;- ClickToCanvas(x: int, y: int, hWnd: HWND): void&lt;/div&gt;&lt;div&gt;- static CheckClickToVert(vx: int, vy: int, mx: int, my: int): bool&lt;/div&gt;&lt;div&gt;- static RegistMouseToLeave(hWnd: HWND)&lt;/div&gt;" style="text;strokeColor=none;fillColor=none;align=left;verticalAlign=top;spacingLeft=4;spacingRight=4;overflow=hidden;rotatable=0;points=[[0,0.5],[1,0.5]];portConstraint=eastwest;whiteSpace=wrap;html=1;" vertex="1" parent="ymav6V-hcm-zEig4iOVw-85">
          <mxGeometry y="148" width="610" height="162" as="geometry" />
        </mxCell>
        <mxCell id="ymav6V-hcm-zEig4iOVw-89" value="" style="endArrow=diamondThin;endFill=1;endSize=24;html=1;rounded=0;" edge="1" parent="WIyWlLk6GJQsqaUBKTNV-1" source="ymav6V-hcm-zEig4iOVw-81">
          <mxGeometry width="160" relative="1" as="geometry">
            <mxPoint x="320" y="-530" as="sourcePoint" />
            <mxPoint x="760" y="-593" as="targetPoint" />
          </mxGeometry>
        </mxCell>
        <mxCell id="ymav6V-hcm-zEig4iOVw-90" value="" style="endArrow=block;dashed=1;endFill=0;endSize=12;html=1;rounded=0;" edge="1" parent="WIyWlLk6GJQsqaUBKTNV-1" source="ymav6V-hcm-zEig4iOVw-81" target="ymav6V-hcm-zEig4iOVw-9">
          <mxGeometry width="160" relative="1" as="geometry">
            <mxPoint x="700" y="-480" as="sourcePoint" />
            <mxPoint x="860" y="-480" as="targetPoint" />
            <Array as="points">
              <mxPoint x="990" y="-120" />
              <mxPoint x="-120" y="-120" />
            </Array>
          </mxGeometry>
        </mxCell>
        <mxCell id="ymav6V-hcm-zEig4iOVw-91" value="Use" style="endArrow=open;endSize=12;dashed=1;html=1;rounded=0;" edge="1" parent="WIyWlLk6GJQsqaUBKTNV-1" source="ymav6V-hcm-zEig4iOVw-81" target="ymav6V-hcm-zEig4iOVw-5">
          <mxGeometry width="160" relative="1" as="geometry">
            <mxPoint x="600" y="-250" as="sourcePoint" />
            <mxPoint x="760" y="-250" as="targetPoint" />
            <Array as="points">
              <mxPoint x="1440" y="-560" />
              <mxPoint x="1440" y="830" />
            </Array>
          </mxGeometry>
        </mxCell>
        <mxCell id="ymav6V-hcm-zEig4iOVw-92" value="Use" style="endArrow=open;endSize=12;dashed=1;html=1;rounded=0;" edge="1" parent="WIyWlLk6GJQsqaUBKTNV-1" source="ymav6V-hcm-zEig4iOVw-81" target="ymav6V-hcm-zEig4iOVw-1">
          <mxGeometry width="160" relative="1" as="geometry">
            <mxPoint x="1140" y="-567" as="sourcePoint" />
            <mxPoint x="310" y="858" as="targetPoint" />
            <Array as="points">
              <mxPoint x="1480" y="-600" />
              <mxPoint x="1480" y="1000" />
              <mxPoint x="40" y="1000" />
            </Array>
          </mxGeometry>
        </mxCell>
        <mxCell id="ymav6V-hcm-zEig4iOVw-93" value="" style="endArrow=diamondThin;endFill=1;endSize=24;html=1;rounded=0;" edge="1" parent="WIyWlLk6GJQsqaUBKTNV-1" source="ymav6V-hcm-zEig4iOVw-68" target="ymav6V-hcm-zEig4iOVw-85">
          <mxGeometry width="160" relative="1" as="geometry">
            <mxPoint x="450" y="-430" as="sourcePoint" />
            <mxPoint x="610" y="-430" as="targetPoint" />
          </mxGeometry>
        </mxCell>
        <mxCell id="ymav6V-hcm-zEig4iOVw-94" value="" style="endArrow=diamondThin;endFill=0;endSize=24;html=1;rounded=0;" edge="1" parent="WIyWlLk6GJQsqaUBKTNV-1" source="ymav6V-hcm-zEig4iOVw-61" target="ymav6V-hcm-zEig4iOVw-85">
          <mxGeometry width="160" relative="1" as="geometry">
            <mxPoint x="390" y="-290" as="sourcePoint" />
            <mxPoint x="550" y="-290" as="targetPoint" />
          </mxGeometry>
        </mxCell>
        <mxCell id="ymav6V-hcm-zEig4iOVw-95" value="Сделать модель активной" style="text;html=1;align=center;verticalAlign=middle;resizable=0;points=[];autosize=1;strokeColor=none;fillColor=none;" vertex="1" parent="WIyWlLk6GJQsqaUBKTNV-1">
          <mxGeometry x="485" y="-32" width="170" height="30" as="geometry" />
        </mxCell>
        <mxCell id="ymav6V-hcm-zEig4iOVw-96" value="Shape не должен рисовать, только type" style="text;html=1;align=center;verticalAlign=middle;resizable=0;points=[];autosize=1;strokeColor=none;fillColor=none;" vertex="1" parent="WIyWlLk6GJQsqaUBKTNV-1">
          <mxGeometry x="480" y="30" width="240" height="30" as="geometry" />
        </mxCell>
        <mxCell id="ymav6V-hcm-zEig4iOVw-97" value="Фигуры должны взаимодействовать тольков своей области" style="text;html=1;align=center;verticalAlign=middle;resizable=0;points=[];autosize=1;strokeColor=none;fillColor=none;" vertex="1" parent="WIyWlLk6GJQsqaUBKTNV-1">
          <mxGeometry x="365" y="78" width="350" height="30" as="geometry" />
        </mxCell>
        <mxCell id="ymav6V-hcm-zEig4iOVw-98" value="Отлипание устранить" style="text;html=1;align=center;verticalAlign=middle;resizable=0;points=[];autosize=1;strokeColor=none;fillColor=none;" vertex="1" parent="WIyWlLk6GJQsqaUBKTNV-1">
          <mxGeometry x="480" y="-82" width="140" height="30" as="geometry" />
        </mxCell>
      </root>
    </mxGraphModel>
  </diagram>
</mxfile>
